<svg width="116" height="35" viewBox="0 0 116 35" fill="none" xmlns="http://www.w3.org/2000/svg">
<g clip-path="url(#clip0_1_12)">
<path d="M30 0.859985H29.53V34.82H30V0.859985Z" fill="#4F5355"/>
<path d="M42.52 0.860006L42.54 10.58C42.46 10.63 41.64 10.9 41.33 10.93C41.02 10.96 40.01 11.05 39.26 10.53C39.07 10.4 38.96 10.24 38.96 10.02C38.96 9.84001 38.96 6.30001 38.96 6.30001H37.56V10.32C37.56 10.87 37.67 11.33 37.89 11.7C38.11 12.07 38.46 12.37 38.96 12.55C40.29 13.02 41.46 12.77 42.1 12.63C42.74 12.49 43.29 12.27 43.74 11.97C44.19 11.66 44.27 11.31 44.26 10.85L44.21 0.850006H42.53L42.52 0.860006Z" fill="#4F5355"/>
<path d="M48.94 5.67001C48.59 5.36001 48.17 5.20001 47.67 5.20001C47.13 5.20001 46.67 5.35001 46.31 5.65001C45.95 5.95001 45.67 6.35001 45.5 6.85001C45.32 7.35001 45.23 7.89001 45.23 8.47001C45.23 8.57001 45.23 8.67001 45.25 8.76001C45.26 8.85001 45.29 8.92001 45.32 8.99001C45.35 9.06001 45.38 9.13001 45.42 9.20001C45.46 9.27001 45.52 9.35001 45.59 9.43001C45.73 9.62001 45.87 9.76001 46 9.84001C46.13 9.92001 46.28 9.97001 46.47 10C46.66 10.03 46.94 10.04 47.31 10.04C47.63 10.04 47.94 10.02 48.23 9.99001C48.27 9.99001 48.3 9.99001 48.34 9.98001C48.24 10.12 48.12 10.26 47.98 10.41C47.64 10.77 47.2 11.11 46.66 11.44C46.13 11.77 45.54 12.04 44.89 12.26L46 13.77C46.92 13.41 47.68 12.99 48.26 12.49C48.84 12 49.28 11.46 49.55 10.88C49.83 10.3 49.98 9.68001 50.01 9.02001C50.01 8.96001 50.02 8.91001 50.02 8.85001V8.68001C50.02 8.04001 49.93 7.45001 49.74 6.93001C49.55 6.41001 49.28 5.99001 48.93 5.68001L48.94 5.67001ZM47.83 8.40001H47.63C47.44 8.40001 47.26 8.40001 47.08 8.38001C46.9 8.36001 46.74 8.34001 46.6 8.32001C46.6 7.84001 46.69 7.48001 46.87 7.22001C47.05 6.97001 47.28 6.84001 47.57 6.84001C47.88 6.84001 48.14 6.97001 48.34 7.22001C48.54 7.47001 48.64 7.84001 48.64 8.33001C48.4 8.38001 48.14 8.40001 47.84 8.40001H47.83Z" fill="#4F5355"/>
<path d="M54.45 7.74C54.21 7.87 54.19 7.85999 53.74 7.97C53.29 8.08999 52.79 8.18 52.25 8.26C51.71 8.34 50.97 8.42 50.97 8.42V10.41C51.78 10.37 52.59 10.26 53.38 10.07C54.17 9.88 54.83 9.59 55.37 9.18C55.91 8.77 56.17 8.24 56.16 7.6V0.869995H54.43V7.74H54.45Z" fill="#4F5355"/>
<path d="M58.86 0.859985H57.15V10.03H58.86V0.859985Z" fill="#4F5355"/>
<path d="M53.15 0.859985H51.44V7.13999H53.15V0.859985Z" fill="#4F5355"/>
<path d="M96.1 9.65999C96.1 9.65999 96.13 9.65999 96.15 9.63999C96.45 9.48999 96.67 9.26999 96.82 8.98999C96.97 8.70999 97.08 8.33999 97.14 7.87999C97.2 7.41999 97.22 6.80999 97.22 6.04999C97.22 5.40999 97.13 4.81999 96.94 4.29999C96.75 3.77999 96.48 3.35999 96.13 3.04999C95.78 2.73999 95.36 2.57999 94.86 2.57999C94.32 2.57999 93.86 2.72999 93.5 3.02999C93.14 3.32999 92.86 3.72999 92.69 4.22999C92.51 4.72999 92.42 5.26999 92.42 5.84999C92.42 5.94999 92.42 6.03999 92.44 6.11999C92.45 6.19999 92.48 6.26999 92.51 6.32999C92.53 6.39999 92.56 6.47999 92.61 6.55999C92.66 6.63999 92.71 6.71999 92.78 6.79999C92.92 6.98999 93.06 7.12999 93.19 7.20999C93.32 7.28999 93.47 7.33999 93.66 7.36999C93.85 7.39999 94.13 7.40999 94.5 7.40999C94.82 7.40999 95.13 7.38999 95.42 7.35999C95.71 7.32999 95.84 7.31999 96 7.25999C96 7.25999 96.06 7.87999 95.75 7.92999C95.61 7.95999 95.35 7.98999 94.97 8.00999C94.58 8.02999 94.07 8.04999 93.42 8.06999C92.77 8.08999 93.12 8.08999 92.28 8.08999C91.44 8.08999 90.87 8.06999 90.46 8.01999C90.05 7.96999 89.76 7.88999 89.59 7.75999C89.42 7.63999 89.34 7.45999 89.34 7.21999V5.18999H87.93V7.57999C87.93 8.23999 88.11 8.74999 88.48 9.11999C88.85 9.48999 89.36 9.73999 90 9.87999C90.64 10.02 91.44 10.08 92.39 10.08C93.82 10.08 93.8 10.05 94.49 9.99999C95.18 9.93999 95.71 9.82999 96.07 9.66999C96.09 9.66999 96.1 9.65999 96.12 9.64999L96.1 9.65999ZM95.02 5.77999H94.82C94.63 5.77999 94.45 5.77999 94.27 5.75999C94.09 5.73999 93.93 5.71999 93.79 5.69999C93.79 5.21999 93.88 4.85999 94.06 4.59999C94.24 4.34999 94.47 4.21999 94.76 4.21999C95.07 4.21999 95.33 4.34999 95.53 4.59999C95.73 4.84999 95.83 5.21999 95.83 5.70999C95.59 5.75999 95.33 5.77999 95.03 5.77999H95.02Z" fill="#4F5355"/>
<path d="M114.74 5.7C114.43 5.44 114.06 5.31 113.63 5.31C113.24 5.31 112.9 5.38 112.61 5.52C112.32 5.66 112.05 5.88 111.82 6.18C111.59 6.47 111.36 6.87 111.14 7.37C111.04 7.58 110.97 7.74 110.89 7.81C110.14 8.38 109.66 7.87 109.57 7.78C109.58 7.67 109.59 7.56 109.59 7.45C109.59 6.77 109.49 6.19 109.28 5.73C109.07 5.27 108.77 4.91 108.37 4.67C107.97 4.43 107.46 4.31 106.86 4.31C106.3 4.31 105.72 4.52 105.13 4.93C104.54 5.34 104 5.82 103.53 6.36C103.06 6.9 102.56 7.52 102.43 7.75V6.3H100.98V7.86C100.86 7.91 100.81 7.92 100.71 7.94C100.54 7.98 100.35 8.01 100.15 8.02C99.53 8.04 99.51 7.56 99.48 7.44C99.47 6.75 99.48 6.38 99.46 6.3H98.11V9.66C97.96 9.95 97.75 10.23 97.5 10.49C97.25 10.75 96.87 11.03 96.39 11.32C95.9 11.61 95.26 11.92 94.48 12.24L95.96 13.75C96.94 13.32 97.36 12.87 97.94 12.4C98.52 11.93 98.94 11.44 99.19 10.93C99.41 10.49 99.53 10.01 99.56 9.49C99.62 9.55 99.95 9.92 100.83 9.83C101.3 9.78 101.63 9.49 101.88 9.19C102.12 9.4 103.09 9.96 104.77 10.02C105.81 10.06 106.71 9.91 107.47 9.7C107.96 9.56 108.36 9.39 108.69 9.17C108.74 9.24 108.79 9.31 108.84 9.37C109.03 9.6 109.53 10.12 110.83 9.9C111.12 9.85 111.33 9.71 111.5 9.55L113.88 10.54C114.04 10.6 114.19 10.62 114.34 10.58C114.48 10.54 114.66 10.44 114.86 10.29C115.08 10.14 115.23 10.01 115.32 9.91C115.4 9.81 115.46 9.7 115.5 9.58C115.56 9.36 115.61 9.13 115.64 8.91C115.67 8.68 115.69 8.46 115.69 8.24C115.69 7.7 115.61 7.21 115.45 6.76C115.29 6.31 115.05 5.96 114.74 5.7ZM106.94 7.88C106.55 7.94 106.18 7.98 105.81 8.01C105.44 8.04 105.04 8.05 104.62 8.05C104.49 8.05 104.36 8.05 104.22 8.05C104.08 8.05 103.95 8.05 103.83 8.03C104.39 7.4 104.94 6.91 105.48 6.55C106.02 6.19 106.5 6.01 106.91 6.01C107.16 6.01 107.38 6.07 107.56 6.19C107.74 6.31 107.88 6.49 107.97 6.73C108.07 6.97 108.12 7.27 108.12 7.65C107.72 7.75 107.33 7.83 106.94 7.89V7.88ZM114.21 8.5C114.2 8.62 114.17 8.72 114.14 8.8L112.25 7.99C112.25 7.99 112.26 7.98 112.26 7.97C112.26 7.96 112.26 7.96 112.27 7.94C112.45 7.69 112.59 7.5 112.69 7.37C112.79 7.24 112.9 7.14 113.01 7.08C113.12 7.02 113.26 6.99 113.41 6.99C113.68 6.99 113.88 7.1 114.02 7.31C114.16 7.52 114.22 7.8 114.22 8.15C114.22 8.26 114.22 8.37 114.2 8.49L114.21 8.5Z" fill="#4F5355"/>
<path d="M95.66 0H93.95V1.71H95.66V0Z" fill="#4F5355"/>
<path d="M67.27 5.31C66.92 5 66.5 4.84 66 4.84C65.46 4.84 65 4.99 64.64 5.3C64.28 5.61 64.01 6.01 63.83 6.5C63.66 7 63.57 7.54 63.57 8.12C63.57 8.26 63.58 8.38 63.6 8.47C63.62 8.56 63.66 8.65 63.71 8.75C63.73 8.8 63.75 8.85 63.79 8.9C63.83 8.95 63.87 9.01 63.91 9.07C64.05 9.25 64.19 9.39 64.32 9.47C64.45 9.55 64.6 9.61 64.79 9.64C64.98 9.67 65.26 9.68 65.63 9.68C65.95 9.68 66.26 9.66 66.55 9.63C66.69 9.61 66.82 9.6 66.93 9.58C66.93 9.6 66.93 9.62 66.93 9.63C66.93 9.77 66.91 9.89 66.9 9.99C66.9 10.1 66.88 10.19 66.87 10.28C66.53 10.53 66.12 10.68 65.73 10.77C65.34 10.85 64.96 10.91 64.59 10.94C64.22 10.97 63.81 10.96 63.56 10.92C63.28 10.87 63.04 10.79 62.84 10.67C62.64 10.55 62.54 10.23 62.54 10.01V6.36H61.13C61.13 6.36 61.13 10.13 61.13 10.3C61.13 10.85 61.24 11.31 61.46 11.68C61.68 12.05 62.02 12.4 62.53 12.53C63.74 12.83 64.97 12.73 65.79 12.56C66.61 12.39 67.24 12.09 67.66 11.67C67.85 11.49 68 11.26 68.11 10.98C68.21 10.7 68.28 10.35 68.32 9.93C68.36 9.51 68.38 8.97 68.38 8.31C68.38 7.65 68.28 7.07 68.09 6.55C67.9 6.03 67.63 5.61 67.28 5.3L67.27 5.31ZM66.16 8.04H65.96C65.78 8.04 65.6 8.04 65.41 8.02C65.22 8 65.06 7.98 64.93 7.96C64.93 7.49 65.02 7.13 65.2 6.87C65.38 6.61 65.61 6.48 65.9 6.48C66.22 6.48 66.48 6.61 66.68 6.86C66.87 7.11 66.97 7.48 66.97 7.97C66.73 8.02 66.47 8.04 66.17 8.04H66.16Z" fill="#4F5355"/>
<path d="M81.32 0.929993V7.85999C81.32 7.85999 80.89 8.02999 80.59 8.07999C79.43 8.27999 79.13 8.07999 79.11 8.07999C79.21 7.97999 79.31 7.84999 79.42 7.69999C79.61 7.44999 79.76 7.18999 79.88 6.92999C80 6.66999 80.06 6.47999 80.06 6.34999V5.91999C80.06 5.58999 79.98 5.33999 79.82 5.14999C79.66 4.95999 79.4 4.82999 79.06 4.73999C78.71 4.65999 78.25 4.60999 77.69 4.60999C77.03 4.60999 76.44 4.63999 75.8 4.70999C74.98 4.79999 74.4 5.56999 74.56 6.37999C74.57 6.42999 74.58 6.45999 74.59 6.47999C74.67 6.57999 74.91 6.88999 75.13 7.21999C75.28 7.44999 75.46 7.72999 75.67 8.06999C75.64 8.06999 74.66 8.27999 73.88 8.03999C73.7 7.97999 73.57 7.84999 73.47 7.74999C73.4 7.67999 73.35 7.58999 73.32 7.46999C73.29 7.37999 73.28 7.27999 73.28 7.18999V6.30999H71.94V9.65999C71.8 9.94999 71.59 10.23 71.34 10.49C71.09 10.75 70.71 11.03 70.23 11.32C69.74 11.61 69.1 11.92 68.32 12.24L69.8 13.75C70.78 13.32 71.2 12.87 71.78 12.4C72.36 11.93 72.78 11.44 73.03 10.93C73.25 10.49 73.37 10.01 73.4 9.48999C73.46 9.54999 73.52 9.60999 73.59 9.65999C73.8 9.81999 74.83 10.2 76.31 9.78999C76.61 9.70999 76.84 9.51999 77.03 9.34999C77.1 9.28999 77.16 9.21999 77.22 9.15999C77.27 9.22999 77.33 9.28999 77.38 9.34999C77.54 9.51999 77.75 9.66999 78 9.78999C78.25 9.90999 78.56 9.97999 78.92 10.01C78.99 10.01 79.05 10.02 79.12 10.02H79.32C79.32 10.02 80.65 10.08 81.65 9.75999C82.38 9.52999 82.72 9.04999 82.85 8.77999C82.98 8.50999 83.04 8.22999 83.03 7.92999V0.929993H81.35H81.32ZM78.05 7.29999C77.74 7.60999 77.47 7.79999 77.21 7.86999C77.09 7.71999 76.99 7.57999 76.9 7.45999C76.81 7.33999 76.73 7.21999 76.66 7.11999C76.47 6.86999 76.34 6.68999 76.26 6.59999C76.18 6.49999 76.11 6.43999 76.04 6.40999C76.04 6.40999 76.03 6.40999 76.02 6.40999C76.12 6.38999 76.24 6.36999 76.39 6.35999C76.7 6.32999 77.06 6.30999 77.47 6.30999H77.63C77.69 6.30999 77.74 6.30999 77.8 6.31999C78.17 6.33999 78.44 6.37999 78.61 6.44999C78.53 6.70999 78.34 6.99999 78.04 7.30999L78.05 7.29999Z" fill="#4F5355"/>
<path d="M85.66 0.859985H83.95V10.03H85.66V0.859985Z" fill="#4F5355"/>
<path d="M70.99 0.859985H69.28V9.27999H70.99V0.859985Z" fill="#4F5355"/>
<path d="M67.7 1.85999H64.08V3.56999H67.7V1.85999Z" fill="#4F5355"/>
<path d="M19.62 17.92L15.5 14.76L6.1 7.60001H12.56C14.87 7.60001 16.75 9.48001 16.75 11.79C16.75 12.42 16.61 13.02 16.36 13.56L19.35 15.86C20.06 14.67 20.47 13.28 20.47 11.8C20.47 7.43001 16.93 3.89001 12.56 3.89001H0V7.57001L10.89 15.92L10.96 15.97L16.67 20.35C16.75 20.4 16.83 20.46 16.91 20.51L16.99 20.57C18.02 21.37 18.67 22.65 18.61 24.08C18.5 26.32 16.61 28.06 14.37 28.06H3.72V19.69H12.56H13.2L8.35 15.97H0V31.79H14.42C18.79 31.79 22.33 28.25 22.33 23.88C22.33 21.5 21.28 19.37 19.62 17.92Z" fill="#00A09B"/>
<path d="M45.63 25.56H43.98V32.18H45.63V25.56Z" fill="#4F5355"/>
<path d="M45.63 23.07H43.98V24.72H45.63V23.07Z" fill="#4F5355"/>
<path d="M36.95 23.08V24.74V26.81V28.46V32.18H38.6V28.46H42.13V26.81H38.6V24.74H42.74V23.08H38.6H36.95Z" fill="#4F5355"/>
<path d="M46.87 27.21V32.17H48.52V27.62C48.52 27.39 48.71 27.21 48.93 27.21H50.61V25.56H48.51C47.6 25.56 46.86 26.3 46.86 27.21H46.87Z" fill="#4F5355"/>
<path d="M55.95 28.92C55.41 28.44 54.19 28.14 53.53 27.92C53.31 27.85 53.14 27.76 53.18 27.51C53.23 27.14 53.59 27.21 53.59 27.21H56.2V25.56H53.18C52.27 25.56 51.53 26.3 51.53 27.21V27.62C51.53 27.62 51.43 28.81 52.52 29.14C53.61 29.47 53.94 29.61 54.48 29.79C54.79 29.9 54.86 30.06 54.83 30.25C54.78 30.53 54.42 30.5 54.42 30.5H51.53V32.15H54.83C55.74 32.15 56.48 31.41 56.48 30.5V30.09C56.48 30.09 56.5 29.4 55.95 28.92Z" fill="#4F5355"/>
<path d="M60.91 27.21V25.56H59.75V23.91H58.1V25.56H57.27V27.21H58.1V30.52C58.1 31.43 58.84 32.17 59.75 32.17H60.91V30.52H60.17C59.94 30.52 59.76 30.33 59.76 30.11V27.21H60.92H60.91Z" fill="#4F5355"/>
<path d="M65.11 23.07H63.46V32.17H65.11V23.07Z" fill="#4F5355"/>
<path d="M85.33 25.7H83.68V32.32H85.33V25.7Z" fill="#4F5355"/>
<path d="M85.33 23.22H83.68V24.87H85.33V23.22Z" fill="#4F5355"/>
<path d="M70.04 25.56H67.94C67.03 25.56 66.29 26.3 66.29 27.21V32.17H67.94V27.62C67.94 27.39 68.13 27.21 68.35 27.21H70.03V25.56H70.04Z" fill="#4F5355"/>
<path d="M73.89 25.59H70.88V27.24H73.47C73.7 27.24 73.88 27.43 73.88 27.65V28.26H71.81C70.78 28.26 69.95 29.09 69.95 30.12V30.34C69.95 31.37 70.78 32.2 71.81 32.2H75.53V27.24C75.53 26.33 74.79 25.59 73.88 25.59H73.89ZM73.89 30.54V30.95H72.32C71.92 30.95 71.59 30.62 71.59 30.22V30.03C71.59 29.63 71.92 29.3 72.32 29.3H73.89V30.54Z" fill="#4F5355"/>
<path d="M76.67 27.78V30.26C76.67 31.41 77.6 32.35 78.76 32.35H80.88V34.81H82.53V25.69H78.76C77.61 25.69 76.67 26.62 76.67 27.78ZM80.8 27.14V30.86H79.24C78.77 30.86 78.39 30.48 78.39 30.01V27.98C78.39 27.51 78.77 27.13 79.24 27.13H80.8V27.14Z" fill="#4F5355"/>
<path d="M112.7 28.33L114.58 25.99H112.57L110.99 28.01V23.07H109.33V32.17H110.99V28.73L113.17 32.17H115.1L112.7 28.33Z" fill="#4F5355"/>
<path d="M106.26 25.56H103.78H102.13V32.18H103.78V27.22H105.85C106.08 27.22 106.26 27.41 106.26 27.63V32.18H107.91V27.22C107.91 26.31 107.17 25.57 106.26 25.57V25.56Z" fill="#4F5355"/>
<path d="M99.31 25.59H96.3V27.24H98.89C99.12 27.24 99.3 27.43 99.3 27.65V28.26H97.23C96.2 28.26 95.37 29.09 95.37 30.12V30.34C95.37 31.37 96.2 32.2 97.23 32.2H100.95V27.24C100.95 26.33 100.21 25.59 99.3 25.59H99.31ZM99.31 29.92V30.53V30.94H97.74C97.34 30.94 97.01 30.61 97.01 30.21V30.02C97.01 29.62 97.34 29.29 97.74 29.29H99.31V29.92Z" fill="#4F5355"/>
<path d="M93.67 27.38C93.9 27.04 94.04 26.64 94.04 26.2V25.14C94.04 23.99 93.11 23.07 91.97 23.07H87.81V32.18H92.42C93.57 32.18 94.5 31.25 94.5 30.1V29.04C94.5 28.37 94.18 27.77 93.68 27.39L93.67 27.38ZM89.53 24.36H91.57C92.02 24.36 92.39 24.73 92.39 25.18V26.13C92.39 26.58 92.02 26.95 91.57 26.95H89.53V24.36ZM92.76 29.85C92.76 30.32 92.38 30.69 91.92 30.69H89.53V28.27H91.92C92.39 28.27 92.76 28.65 92.76 29.11V29.84V29.85Z" fill="#4F5355"/>
</g>
<defs>
<clipPath id="clip0_1_12">
<rect width="115.69" height="34.81" fill="white"/>
</clipPath>
</defs>
</svg>
