<svg xmlns="http://www.w3.org/2000/svg" width="327" height="193" fill="none" viewBox="0 0 327 193"><g filter="url(#a)"><rect width="311" height="185" x="8" y="6" fill="url(#b)" rx="15"/></g><mask id="c" width="311" height="185" x="8" y="6" maskUnits="userSpaceOnUse" style="mask-type:alpha"><rect width="311" height="185" x="8" y="6" fill="#0C6464" rx="15"/></mask><g mask="url(#c)" opacity=".5"><path fill="url(#d)" d="M293 56.4315 169.505 169.462l24.956-15.159 86.706-79.3758L293 56.4315Z"/><path fill="url(#e)" d="m134 137.089 35.505 32.373L293 56.4315l-34.729-33.1403L134 137.089Z"/><path fill="url(#f)" d="M142.49 105.751 134 137.089 258.271 23.2912l-29.19 4.148-86.591 78.3118Z"/><path fill="url(#g)" d="m173.754 24.7318 55.327 2.7074 29.19-4.148-80.53-3.3372-3.987 4.7778Z"/><path fill="url(#h)" d="m142.49 105.751 86.591-78.3118-55.327-2.7074-31.264 81.0192Z"/><path fill="url(#i)" d="M176.958 31.2252h39.971l-64.528 59.7003 24.557-59.7003Z"/></g><path fill="#fff" d="M259.701 41.6361h-4.272l2.669-16.356h4.272l-2.669 16.356Zm-7.867-16.356-4.074 11.2497-.483-2.4241-1.435-7.3554s-.176-1.4702-2.029-1.4702h-6.734l-.079.2756c1.577.3908 3.084 1.0209 4.469 1.8684l3.714 14.212h4.451l6.801-16.356h-4.601Zm33.61 16.3559h3.92l-3.419-16.3561h-3.425c-.416-.0324-.832.0679-1.187.2866-.355.2187-.631.5444-.788.9298l-6.366 15.1397h4.452l.878-2.4285h5.43l.505 2.4285Zm-4.68-5.7846 2.244-6.1259 1.264 6.1259h-3.508Zm-6.265-6.6377.611-3.5005c-1.236-.4398-2.534-.6805-3.846-.7132-2.12 0-7.156.9233-7.156 5.4126 0 4.2269 5.909 4.2794 5.909 6.4978 0 2.2185-5.299 1.8247-7.046.4376l-.636 3.6711c1.528.6376 3.172.952 4.829.9233 2.915 0 7.313-1.5052 7.313-5.5964 0-4.2531-5.966-4.6513-5.966-6.5022 0-1.8509 4.158-1.6365 5.988-.6301Z"/><path fill="#fff" d="m247.277 34.1057-1.435-7.3554s-.176-1.4702-2.029-1.4702h-6.734l-.079.2756c2.32.5885 4.484 1.6707 6.344 3.1724 1.766 1.4133 3.123 3.2692 3.933 5.3776Zm-201.0803-1.004-3.0249-2.0562-6.8872-4.6567h4.7339c1.6919 0 3.0761 1.2247 3.0761 2.7215 0 .4082-.1025.8013-.2905 1.149l2.1875 1.4968c.5298-.771.8203-1.6782.8203-2.6307 0-2.8273-2.5976-5.1254-5.7934-5.1254h-9.2114v2.3888l7.9809 5.4278.0513.0302 4.187 2.8424s.1196.0756.1709.1059l.0512.0453c.752.5141 1.2305 1.3456 1.1792 2.283-.0854 1.4515-1.4697 2.5854-3.1103 2.5854h-7.81V34.281h6.9384l-3.5547-2.419h-6.1181v10.2659h10.5786c3.1958 0 5.7934-2.2981 5.7934-5.1254 0-1.5422-.769-2.9331-1.9824-3.8705l.0342-.0303Z"/><path stroke="#fff" stroke-miterlimit="10" stroke-width=".62" d="M53.6478 27.0238v12.0349"/><path fill="#fff" d="M59.0995 27.0238v12.05h2.4777V34.145h5.2802v-2.1923h-5.2802v-2.7366h6.1858v-2.1923h-8.6635Zm13.4152 0h-2.4778v12.05h2.4778v-12.05Zm11.2615 5.7c.3417-.4385.5468-.9828.5468-1.5573v-1.4061c0-1.5119-1.3841-2.7517-3.11-2.7517h-6.2371v12.0651h6.9035c1.7259 0 3.11-1.2398 3.11-2.7517V34.916c0-.892-.4784-1.6782-1.2303-2.1922h.0171Zm-6.2029-3.9915h3.0587c.6835 0 1.2303.4838 1.2303 1.0886v1.2549c0 .6047-.5468 1.0885-1.2303 1.0885h-3.0587v-3.432Zm4.8358 7.2723c0 .6199-.5639 1.1188-1.2645 1.1188h-3.5713v-3.2052h3.5713c.7006 0 1.2645.4989 1.2645 1.1188v.9676Z"/><defs><linearGradient id="b" x1="364" x2="4.00045" y1="99.6915" y2="94.675" gradientUnits="userSpaceOnUse"><stop stop-color="#575869"/><stop offset=".505665"/></linearGradient><linearGradient id="d" x1="170" x2="295.13" y1="169.462" y2="56.4234" gradientUnits="userSpaceOnUse"><stop stop-color="#575869"/><stop offset="1" stop-color="#020202"/></linearGradient><linearGradient id="e" x1="276.5" x2="150.375" y1="37.3967" y2="151.933" gradientUnits="userSpaceOnUse"><stop stop-color="#575869"/><stop offset="1" stop-color="#020202"/></linearGradient><linearGradient id="f" x1="134" x2="257.623" y1="137.567" y2="22.539" gradientUnits="userSpaceOnUse"><stop stop-color="#575869"/><stop offset="1" stop-color="#020202"/></linearGradient><linearGradient id="g" x1="258" x2="178.001" y1="23.9409" y2="19.9278" gradientUnits="userSpaceOnUse"><stop stop-color="#575869"/><stop offset="1" stop-color="#020202"/></linearGradient><linearGradient id="h" x1="217.5" x2="160.526" y1="75.7703" y2="60.2263" gradientUnits="userSpaceOnUse"><stop stop-color="#575869"/><stop offset="1" stop-color="#020202"/></linearGradient><linearGradient id="i" x1="176" x2="174.51" y1="136.072" y2="30.9177" gradientUnits="userSpaceOnUse"><stop stop-color="#575869"/><stop offset="1" stop-color="#020202"/></linearGradient><filter id="a" width="327" height="193" x="0" y="0" color-interpolation-filters="sRGB" filterUnits="userSpaceOnUse"><feFlood flood-opacity="0" result="BackgroundImageFix"/><feOffset dy="2"/><feGaussianBlur stdDeviation="4"/><feComposite in2="hardAlpha" operator="out"/><feColorMatrix values="0 0 0 0 0 0 0 0 0 0 0 0 0 0 0 0 0 0 0.25 0"/><feBlend in2="BackgroundImageFix" result="effect1_dropShadow_250_4162"/><feBlend in="SourceGraphic" in2="effect1_dropShadow_250_4162" result="shape"/></filter></defs></svg>